<svg width="64" height="64" viewBox="0 0 64 64" fill="none" xmlns="http://www.w3.org/2000/svg">
<path d="M12 44.0001C24 48.0001 40 42.0001 46 28.0001C32 26.0001 24 34.0001 20 44.0001" stroke="#D4A017" stroke-width="2.5" stroke-linecap="round" stroke-linejoin="round"/>
<path d="M52 24C58 24 62 30 62 36C62 44 56 50 50 50C48 50 46 49 44 48" stroke="#D4A017" stroke-width="2.5" stroke-linecap="round" stroke-linejoin="round"/>
<path d="M56 24C58 21 60 20 62 20M48 24C46 21 44 20 42 20" stroke="#D4A017" stroke-width="2.5" stroke-linecap="round" stroke-linejoin="round"/>
<path d="M50 30C52 32 52 36 50 38C48 36 48 32 50 30Z" stroke="#D4A017" stroke-width="2.5" stroke-linecap="round" stroke-linejoin="round"/>
</svg>
