<svg width="64" height="64" viewBox="0 0 64 64" fill="none" xmlns="http://www.w3.org/2000/svg">
<path d="M32 40C36.4183 40 40 36.4183 40 32C40 27.5817 36.4183 24 32 24C27.5817 24 24 27.5817 24 32C24 36.4183 27.5817 40 32 40Z" stroke="#D4A017" stroke-width="2.5" stroke-linecap="round" stroke-linejoin="round"/>
<path d="M32 14V20" stroke="#D4A017" stroke-width="2.5" stroke-linecap="round" stroke-linejoin="round"/>
<path d="M32 44V50" stroke="#D4A017" stroke-width="2.5" stroke-linecap="round" stroke-linejoin="round"/>
<path d="M14 32H20" stroke="#D4A017" stroke-width="2.5" stroke-linecap="round" stroke-linejoin="round"/>
<path d="M44 32H50" stroke="#D4A017" stroke-width="2.5" stroke-linecap="round" stroke-linejoin="round"/>
<path d="M20 20L24 24" stroke="#D4A017" stroke-width="2.5" stroke-linecap="round" stroke-linejoin="round"/>
<path d="M40 40L44 44" stroke="#D4A017" stroke-width="2.5" stroke-linecap="round" stroke-linejoin="round"/>
<path d="M44 20L40 24" stroke="#D4A017" stroke-width="2.5" stroke-linecap="round" stroke-linejoin="round"/>
<path d="M20 44L24 40" stroke="#D4A017" stroke-width="2.5" stroke-linecap="round" stroke-linejoin="round"/>
<path d="M32 50C41.9411 50 50 41.9411 50 32C50 22.0589 41.9411 14 32 14C22.0589 14 14 22.0589 14 32C14 41.9411 22.0589 50 32 50Z" stroke="#D4A017" stroke-width="2.5" stroke-linecap="round" stroke-linejoin="round"/>
</svg>
