<svg width="64" height="64" viewBox="0 0 64 64" fill="none" xmlns="http://www.w3.org/2000/svg">
<path d="M32 52C32 52 14 41 14 28C14 25.9012 14.6604 23.8556 15.8876 22.1529C17.1148 20.4502 18.8466 19.1769 20.8377 18.5132C22.8288 17.8495 24.9783 17.8291 26.9817 18.4549C28.985 19.0807 30.7407 20.3209 32 22C33.2593 20.3209 35.015 19.0807 37.0183 18.4549C39.0217 17.8291 41.1712 17.8495 43.1623 18.5132C45.1534 19.1769 46.8852 20.4502 48.1124 22.1529C49.3396 23.8556 50 25.9012 50 28C50 41 32 52 32 52Z" stroke="#D4A017" stroke-width="2.5" stroke-linecap="round" stroke-linejoin="round"/>
<path d="M14 30H22L25 24L31 36L34 30H47" stroke="#D4A017" stroke-width="2.5" stroke-linecap="round" stroke-linejoin="round"/>
</svg>
