<svg width="64" height="64" viewBox="0 0 64 64" fill="none" xmlns="http://www.w3.org/2000/svg">
<path d="M20 19C21.6569 19 23 17.6569 23 16C23 14.3431 21.6569 13 20 13C18.3431 13 17 14.3431 17 16C17 17.6569 18.3431 19 20 19Z" stroke="#D4A017" stroke-width="2.5" stroke-linecap="round" stroke-linejoin="round"/>
<path d="M22 24C30 26 36 32 40 42C30 40 22 36 16 30C14 28 12 25 12 22C16 24 18 24 22 24Z" stroke="#D4A017" stroke-width="2.5" stroke-linecap="round" stroke-linejoin="round"/>
<path d="M42 12C46 12 50 14 52 18C48 18 45 19 42 22" stroke="#D4A017" stroke-width="2.5" stroke-linecap="round" stroke-linejoin="round"/>
<path d="M53 19C53 22 55 24 59 25C57 28 55 29 52 29" stroke="#D4A017" stroke-width="2.5" stroke-linecap="round" stroke-linejoin="round"/>
</svg>
