<svg width="64" height="64" viewBox="0 0 64 64" fill="none" xmlns="http://www.w3.org/2000/svg">
<path d="M32 10C38 16 39 23 32 30C25 23 26 16 32 10Z" stroke="#D4A017" stroke-width="2.5" stroke-linecap="round" stroke-linejoin="round"/>
<path d="M18 16C13 23 13 30 24 35C25 26 22 19 18 16Z" stroke="#D4A017" stroke-width="2.5" stroke-linecap="round" stroke-linejoin="round"/>
<path d="M46 16C51 23 51 30 40 35C39 26 42 19 46 16Z" stroke="#D4A017" stroke-width="2.5" stroke-linecap="round" stroke-linejoin="round"/>
<path d="M12 32C14 40 22 46 32 46C42 46 50 40 52 32C44 34 38 33 32 29C26 33 20 34 12 32Z" stroke="#D4A017" stroke-width="2.5" stroke-linecap="round" stroke-linejoin="round"/>
</svg>
